<svg width="125" height="125" viewBox="0 0 125 125" fill="none" xmlns="http://www.w3.org/2000/svg">
<path opacity="0.8" d="M22.3213 84.1591H83.9192V22.3846L61.1628 1.52588e-05H-7.62939e-06V61.337L22.3213 84.1591ZM1.48867 60.7199V2.54644L22.3213 23.4392V82.028L1.48867 60.7199ZM82.4316 82.6672H23.8089V23.8765H82.4316V82.6672ZM81.7943 22.3846H23.3728L2.54013 1.49191H60.5454L81.7943 22.3846Z" fill="white"/>
<g opacity="0.4">
<path d="M120.798 122.893C120.798 122.476 120.921 122.069 121.152 121.722C121.383 121.376 121.711 121.106 122.095 120.946C122.479 120.787 122.901 120.745 123.309 120.826C123.716 120.908 124.091 121.108 124.385 121.403C124.678 121.698 124.879 122.073 124.96 122.482C125.041 122.891 124.999 123.314 124.84 123.699C124.681 124.084 124.412 124.413 124.066 124.645C123.721 124.876 123.315 125 122.899 125C122.342 125 121.807 124.778 121.413 124.383C121.019 123.988 120.798 123.452 120.798 122.893Z" fill="#302E38"/>
<path d="M93.3945 122.893C93.3945 122.476 93.5177 122.069 93.7486 121.722C93.9795 121.376 94.3076 121.106 94.6915 120.946C95.0754 120.787 95.4978 120.745 95.9054 120.826C96.3129 120.908 96.6873 121.108 96.9811 121.403C97.275 121.698 97.4751 122.073 97.5561 122.482C97.6372 122.891 97.5956 123.314 97.4366 123.699C97.2776 124.084 97.0082 124.413 96.6627 124.645C96.3172 124.876 95.911 125 95.4955 125C94.9383 125 94.4039 124.778 94.0099 124.383C93.6159 123.988 93.3945 123.452 93.3945 122.893Z" fill="#302E38"/>
<path d="M65.992 122.893C65.992 122.476 66.1152 122.069 66.3461 121.722C66.5769 121.376 66.9051 121.106 67.289 120.946C67.6729 120.787 68.0953 120.745 68.5029 120.826C68.9104 120.908 69.2848 121.108 69.5786 121.403C69.8724 121.698 70.0725 122.073 70.1536 122.482C70.2347 122.891 70.1931 123.314 70.0341 123.699C69.875 124.084 69.6058 124.413 69.2603 124.645C68.9148 124.876 68.5085 125 68.093 125C67.5358 125 67.0014 124.778 66.6073 124.383C66.2133 123.988 65.992 123.452 65.992 122.893Z" fill="#302E38"/>
<path d="M40.6895 120.786C39.5291 120.786 38.5885 121.729 38.5885 122.893C38.5885 124.057 39.5291 125 40.6895 125C41.8498 125 42.7905 124.057 42.7905 122.893C42.7905 121.729 41.8498 120.786 40.6895 120.786Z" fill="#302E38"/>
<path d="M120.798 95.6502C120.798 95.2334 120.921 94.826 121.152 94.4795C121.383 94.133 121.711 93.863 122.095 93.7035C122.479 93.544 122.901 93.5023 123.309 93.5836C123.716 93.6649 124.091 93.8656 124.385 94.1603C124.678 94.4549 124.879 94.8304 124.96 95.2391C125.041 95.6478 124.999 96.0715 124.84 96.4565C124.681 96.8415 124.412 97.1706 124.066 97.4021C123.721 97.6336 123.315 97.7572 122.899 97.7572C122.342 97.7572 121.807 97.5352 121.413 97.1401C121.019 96.7449 120.798 96.209 120.798 95.6502Z" fill="#302E38"/>
<path d="M93.3945 95.6502C93.3945 95.2334 93.5177 94.826 93.7486 94.4795C93.9795 94.133 94.3076 93.863 94.6915 93.7035C95.0754 93.544 95.4978 93.5023 95.9054 93.5836C96.3129 93.6649 96.6873 93.8656 96.9811 94.1603C97.275 94.4549 97.4751 94.8304 97.5561 95.2391C97.6372 95.6478 97.5956 96.0715 97.4366 96.4565C97.2776 96.8415 97.0082 97.1706 96.6627 97.4021C96.3172 97.6336 95.911 97.7572 95.4955 97.7572C94.9383 97.7572 94.4039 97.5352 94.0099 97.1401C93.6159 96.7449 93.3945 96.209 93.3945 95.6502Z" fill="#302E38"/>
<path d="M65.992 95.6502C65.992 95.2334 66.1152 94.826 66.3461 94.4795C66.5769 94.133 66.9051 93.863 67.289 93.7035C67.6729 93.544 68.0953 93.5023 68.5029 93.5836C68.9104 93.6649 69.2848 93.8656 69.5786 94.1603C69.8724 94.4549 70.0725 94.8304 70.1536 95.2391C70.2347 95.6478 70.1931 96.0715 70.0341 96.4565C69.875 96.8415 69.6058 97.1706 69.2603 97.4021C68.9148 97.6336 68.5085 97.7572 68.093 97.7572C67.5358 97.7572 67.0014 97.5352 66.6073 97.1401C66.2133 96.7449 65.992 96.209 65.992 95.6502Z" fill="#302E38"/>
<path d="M40.6895 93.5431C39.5291 93.5431 38.5885 94.4865 38.5885 95.6502C38.5885 96.8138 39.5291 97.7572 40.6895 97.7572C41.8498 97.7572 42.7905 96.8138 42.7905 95.6502C42.7905 94.4865 41.8498 93.5431 40.6895 93.5431Z" fill="#302E38"/>
<path d="M120.798 68.4074C120.798 67.9906 120.921 67.5833 121.152 67.2368C121.383 66.8903 121.711 66.6202 122.095 66.4607C122.479 66.3012 122.901 66.2595 123.309 66.3408C123.716 66.4221 124.091 66.6228 124.385 66.9175C124.678 67.2121 124.879 67.5876 124.96 67.9963C125.041 68.405 124.999 68.8287 124.84 69.2137C124.681 69.5987 124.412 69.9278 124.066 70.1593C123.721 70.3908 123.315 70.5144 122.899 70.5144C122.623 70.5144 122.35 70.4599 122.095 70.354C121.84 70.2481 121.608 70.0929 121.413 69.8973C121.218 69.7016 121.064 69.4693 120.958 69.2137C120.852 68.9581 120.798 68.6841 120.798 68.4074Z" fill="#302E38"/>
<path d="M93.3945 68.4074C93.3945 67.9906 93.5177 67.5833 93.7486 67.2368C93.9795 66.8903 94.3076 66.6202 94.6915 66.4607C95.0754 66.3012 95.4978 66.2595 95.9054 66.3408C96.3129 66.4221 96.6873 66.6228 96.9811 66.9175C97.275 67.2121 97.4751 67.5876 97.5561 67.9963C97.6372 68.405 97.5956 68.8287 97.4366 69.2137C97.2776 69.5987 97.0082 69.9278 96.6627 70.1593C96.3172 70.3908 95.911 70.5144 95.4955 70.5144C95.2196 70.5144 94.9464 70.4599 94.6915 70.354C94.4366 70.2481 94.205 70.0929 94.0099 69.8973C93.8148 69.7016 93.66 69.4693 93.5544 69.2137C93.4488 68.9581 93.3945 68.6841 93.3945 68.4074Z" fill="#302E38"/>
<path d="M65.992 68.4074C65.992 67.9906 66.1152 67.5833 66.3461 67.2368C66.5769 66.8903 66.9051 66.6202 67.289 66.4607C67.6729 66.3012 68.0953 66.2595 68.5029 66.3408C68.9104 66.4221 69.2848 66.6228 69.5786 66.9175C69.8724 67.2121 70.0725 67.5876 70.1536 67.9963C70.2347 68.405 70.1931 68.8287 70.0341 69.2137C69.875 69.5987 69.6058 69.9278 69.2603 70.1593C68.9148 70.3908 68.5085 70.5144 68.093 70.5144C67.8171 70.5144 67.5439 70.4599 67.289 70.354C67.0341 70.2481 66.8024 70.0929 66.6073 69.8973C66.4122 69.7016 66.2575 69.4693 66.152 69.2137C66.0464 68.9581 65.992 68.6841 65.992 68.4074Z" fill="#302E38"/>
<path d="M38.5885 68.4074C38.5885 67.9906 38.7117 67.5833 38.9426 67.2368C39.1734 66.8903 39.5016 66.6202 39.8855 66.4607C40.2694 66.3012 40.6918 66.2595 41.0994 66.3408C41.5069 66.4221 41.8813 66.6228 42.1751 66.9175C42.4689 67.2121 42.669 67.5876 42.7501 67.9963C42.8312 68.405 42.7896 68.8287 42.6305 69.2137C42.4715 69.5987 42.2022 69.9278 41.8567 70.1593C41.5112 70.3908 41.105 70.5144 40.6895 70.5144C40.4136 70.5144 40.1404 70.4599 39.8855 70.354C39.6306 70.2481 39.3989 70.0929 39.2038 69.8973C39.0087 69.7016 38.854 69.4693 38.7485 69.2137C38.6429 68.9581 38.5885 68.6841 38.5885 68.4074Z" fill="#302E38"/>
<path d="M120.798 41.1644C120.798 40.7477 120.921 40.3403 121.152 39.9938C121.383 39.6473 121.711 39.3773 122.095 39.2178C122.479 39.0583 122.901 39.0166 123.309 39.0979C123.716 39.1792 124.091 39.3798 124.385 39.6745C124.678 39.9692 124.879 40.3446 124.96 40.7533C125.041 41.1621 124.999 41.5857 124.84 41.9708C124.681 42.3558 124.412 42.6848 124.066 42.9164C123.721 43.1479 123.315 43.2715 122.899 43.2715C122.342 43.2715 121.807 43.0495 121.413 42.6543C121.019 42.2592 120.798 41.7232 120.798 41.1644Z" fill="#302E38"/>
<path d="M93.3945 41.1644C93.3945 40.7477 93.5177 40.3403 93.7486 39.9938C93.9795 39.6473 94.3076 39.3773 94.6915 39.2178C95.0754 39.0583 95.4978 39.0166 95.9054 39.0979C96.3129 39.1792 96.6873 39.3798 96.9811 39.6745C97.275 39.9692 97.4751 40.3446 97.5561 40.7533C97.6372 41.1621 97.5956 41.5857 97.4366 41.9708C97.2776 42.3558 97.0082 42.6848 96.6627 42.9164C96.3172 43.1479 95.911 43.2715 95.4955 43.2715C94.9383 43.2715 94.4039 43.0495 94.0099 42.6543C93.6159 42.2592 93.3945 41.7232 93.3945 41.1644Z" fill="#302E38"/>
<path d="M65.992 41.1644C65.992 40.7477 66.1152 40.3403 66.3461 39.9938C66.5769 39.6473 66.9051 39.3773 67.289 39.2178C67.6729 39.0583 68.0953 39.0166 68.5029 39.0979C68.9104 39.1792 69.2848 39.3798 69.5786 39.6745C69.8724 39.9692 70.0725 40.3446 70.1536 40.7533C70.2347 41.1621 70.1931 41.5857 70.0341 41.9708C69.875 42.3558 69.6058 42.6848 69.2603 42.9164C68.9148 43.1479 68.5085 43.2715 68.093 43.2715C67.817 43.2716 67.5438 43.2172 67.2888 43.1113C67.0338 43.0055 66.8022 42.8503 66.6071 42.6546C66.412 42.4589 66.2572 42.2266 66.1517 41.9709C66.0461 41.7152 65.9919 41.4412 65.992 41.1644Z" fill="#302E38"/>
<path d="M40.6895 39.0574C39.5291 39.0574 38.5885 40.0007 38.5885 41.1644C38.5885 42.3281 39.5291 43.2715 40.6895 43.2715C41.8498 43.2715 42.7905 42.3281 42.7905 41.1644C42.7905 40.0007 41.8498 39.0574 40.6895 39.0574Z" fill="#302E38"/>
</g>
</svg>
