<svg width="125" height="125" viewBox="0 0 125 125" fill="none" xmlns="http://www.w3.org/2000/svg">
<path opacity="0.8" d="M102.679 40.8411H41.0808V102.615L63.8372 125H125V63.6631L102.679 40.8411ZM123.511 64.2802V122.454L102.679 101.561V42.9721L123.511 64.2802ZM42.5684 42.333H101.191V101.124H42.5684V42.333ZM43.2057 102.615H101.627L122.46 123.508H64.4546L43.2057 102.615Z" fill="white"/>
<g opacity="0.4">
<path d="M4.20197 2.10703C4.20197 2.52377 4.07876 2.93116 3.8479 3.27766C3.61704 3.62417 3.28892 3.89423 2.90501 4.05371C2.52111 4.21318 2.09866 4.2549 1.6911 4.17359C1.28355 4.09229 0.909192 3.89162 0.615363 3.59695C0.321534 3.30227 0.121442 2.92684 0.0403748 2.51811C-0.0406924 2.10938 0.000899273 1.68574 0.159918 1.30073C0.318937 0.915716 0.588224 0.586618 0.93373 0.355093C1.27924 0.123568 1.68546 0 2.101 0C2.65821 0 3.19262 0.221999 3.58663 0.617147C3.98064 1.01229 4.20197 1.54821 4.20197 2.10703V2.10703Z" fill="#302E38"/>
<path d="M31.6055 2.10703C31.6055 2.52377 31.4823 2.93116 31.2514 3.27766C31.0205 3.62417 30.6924 3.89423 30.3085 4.05371C29.9246 4.21318 29.5022 4.2549 29.0946 4.17359C28.6871 4.09229 28.3127 3.89162 28.0189 3.59695C27.725 3.30227 27.5249 2.92684 27.4439 2.51811C27.3628 2.10938 27.4044 1.68574 27.5634 1.30073C27.7224 0.915716 27.9918 0.586618 28.3373 0.355093C28.6828 0.123568 29.089 0 29.5045 0C30.0617 0 30.5961 0.221999 30.9901 0.617147C31.3841 1.01229 31.6055 1.54821 31.6055 2.10703Z" fill="#302E38"/>
<path d="M59.008 2.10703C59.008 2.52377 58.8848 2.93116 58.6539 3.27766C58.4231 3.62417 58.0949 3.89423 57.711 4.05371C57.3271 4.21318 56.9047 4.2549 56.4971 4.17359C56.0896 4.09229 55.7152 3.89162 55.4214 3.59695C55.1276 3.30227 54.9275 2.92684 54.8464 2.51811C54.7653 2.10938 54.8069 1.68574 54.9659 1.30073C55.125 0.915716 55.3942 0.586618 55.7397 0.355093C56.0852 0.123568 56.4915 0 56.907 0C57.4642 0 57.9986 0.221999 58.3927 0.617147C58.7867 1.01229 59.008 1.54821 59.008 2.10703Z" fill="#302E38"/>
<path d="M84.3105 4.21409C85.4709 4.21409 86.4115 3.27074 86.4115 2.10705C86.4115 0.943357 85.4709 0 84.3105 0C83.1502 0 82.2095 0.943357 82.2095 2.10705C82.2095 3.27074 83.1502 4.21409 84.3105 4.21409Z" fill="#302E38"/>
<path d="M4.20197 29.35C4.20197 29.7667 4.07876 30.1741 3.8479 30.5206C3.61704 30.8671 3.28892 31.1371 2.90501 31.2966C2.52111 31.4561 2.09866 31.4978 1.6911 31.4165C1.28355 31.3352 0.909192 31.1345 0.615363 30.8399C0.321534 30.5452 0.121442 30.1698 0.0403748 29.761C-0.0406924 29.3523 0.000899273 28.9286 0.159918 28.5436C0.318937 28.1586 0.588224 27.8295 0.93373 27.598C1.27924 27.3665 1.68546 27.2429 2.101 27.2429C2.65821 27.2429 3.19262 27.4649 3.58663 27.8601C3.98064 28.2552 4.20197 28.7911 4.20197 29.35V29.35Z" fill="#302E38"/>
<path d="M31.6055 29.35C31.6055 29.7667 31.4823 30.1741 31.2514 30.5206C31.0205 30.8671 30.6924 31.1371 30.3085 31.2966C29.9246 31.4561 29.5022 31.4978 29.0946 31.4165C28.6871 31.3352 28.3127 31.1345 28.0189 30.8399C27.725 30.5452 27.5249 30.1698 27.4439 29.761C27.3628 29.3523 27.4044 28.9286 27.5634 28.5436C27.7224 28.1586 27.9918 27.8295 28.3373 27.598C28.6828 27.3665 29.089 27.2429 29.5045 27.2429C30.0617 27.2429 30.5961 27.4649 30.9901 27.8601C31.3841 28.2552 31.6055 28.7911 31.6055 29.35V29.35Z" fill="#302E38"/>
<path d="M59.008 29.35C59.008 29.7667 58.8848 30.1741 58.6539 30.5206C58.4231 30.8671 58.0949 31.1371 57.711 31.2966C57.3271 31.4561 56.9047 31.4978 56.4971 31.4165C56.0896 31.3352 55.7152 31.1345 55.4214 30.8399C55.1276 30.5452 54.9275 30.1698 54.8464 29.761C54.7653 29.3523 54.8069 28.9286 54.9659 28.5436C55.125 28.1586 55.3942 27.8295 55.7397 27.598C56.0852 27.3665 56.4915 27.2429 56.907 27.2429C57.4642 27.2429 57.9986 27.4649 58.3927 27.8601C58.7867 28.2552 59.008 28.7911 59.008 29.35V29.35Z" fill="#302E38"/>
<path d="M84.3105 31.457C85.4709 31.457 86.4115 30.5137 86.4115 29.35C86.4115 28.1863 85.4709 27.2429 84.3105 27.2429C83.1502 27.2429 82.2095 28.1863 82.2095 29.35C82.2095 30.5137 83.1502 31.457 84.3105 31.457Z" fill="#302E38"/>
<path d="M4.20197 56.5926C4.20197 57.0094 4.07876 57.4167 3.8479 57.7632C3.61704 58.1097 3.28892 58.3798 2.90501 58.5393C2.52111 58.6988 2.09866 58.7405 1.6911 58.6592C1.28355 58.5779 0.909192 58.3772 0.615363 58.0825C0.321534 57.7879 0.121442 57.4124 0.0403748 57.0037C-0.0406924 56.595 0.000899273 56.1713 0.159918 55.7863C0.318937 55.4013 0.588224 55.0722 0.93373 54.8407C1.27924 54.6092 1.68546 54.4856 2.101 54.4856C2.3769 54.4856 2.65011 54.5401 2.90501 54.646C3.15992 54.7519 3.39154 54.9071 3.58663 55.1027C3.78173 55.2984 3.93646 55.5307 4.04204 55.7863C4.14763 56.0419 4.20197 56.3159 4.20197 56.5926Z" fill="#302E38"/>
<path d="M31.6055 56.5926C31.6055 57.0094 31.4823 57.4167 31.2514 57.7632C31.0205 58.1097 30.6924 58.3798 30.3085 58.5393C29.9246 58.6988 29.5022 58.7405 29.0946 58.6592C28.6871 58.5779 28.3127 58.3772 28.0189 58.0825C27.725 57.7879 27.5249 57.4124 27.4439 57.0037C27.3628 56.595 27.4044 56.1713 27.5634 55.7863C27.7224 55.4013 27.9918 55.0722 28.3373 54.8407C28.6828 54.6092 29.089 54.4856 29.5045 54.4856C29.7804 54.4856 30.0536 54.5401 30.3085 54.646C30.5634 54.7519 30.795 54.9071 30.9901 55.1027C31.1852 55.2984 31.34 55.5307 31.4456 55.7863C31.5512 56.0419 31.6055 56.3159 31.6055 56.5926V56.5926Z" fill="#302E38"/>
<path d="M59.008 56.5926C59.008 57.0094 58.8848 57.4167 58.6539 57.7632C58.4231 58.1097 58.0949 58.3798 57.711 58.5393C57.3271 58.6988 56.9047 58.7405 56.4971 58.6592C56.0896 58.5779 55.7152 58.3772 55.4214 58.0825C55.1276 57.7879 54.9275 57.4124 54.8464 57.0037C54.7653 56.595 54.8069 56.1713 54.9659 55.7863C55.125 55.4013 55.3942 55.0722 55.7397 54.8407C56.0852 54.6092 56.4915 54.4856 56.907 54.4856C57.1829 54.4856 57.4561 54.5401 57.711 54.646C57.9659 54.7519 58.1976 54.9071 58.3927 55.1027C58.5878 55.2984 58.7425 55.5307 58.848 55.7863C58.9536 56.0419 59.008 56.3159 59.008 56.5926V56.5926Z" fill="#302E38"/>
<path d="M86.4115 56.5926C86.4115 57.0094 86.2883 57.4167 86.0574 57.7632C85.8266 58.1097 85.4984 58.3798 85.1145 58.5393C84.7306 58.6988 84.3082 58.7405 83.9006 58.6592C83.4931 58.5779 83.1187 58.3772 82.8249 58.0825C82.5311 57.7879 82.331 57.4124 82.2499 57.0037C82.1688 56.595 82.2104 56.1713 82.3695 55.7863C82.5285 55.4013 82.7978 55.0722 83.1433 54.8407C83.4888 54.6092 83.895 54.4856 84.3105 54.4856C84.5864 54.4856 84.8596 54.5401 85.1145 54.646C85.3694 54.7519 85.6011 54.9071 85.7962 55.1027C85.9913 55.2984 86.146 55.5307 86.2515 55.7863C86.3571 56.0419 86.4115 56.3159 86.4115 56.5926V56.5926Z" fill="#302E38"/>
<path d="M4.20197 83.8356C4.20197 84.2523 4.07876 84.6597 3.8479 85.0062C3.61704 85.3527 3.28892 85.6227 2.90501 85.7822C2.52111 85.9417 2.09866 85.9834 1.6911 85.9021C1.28355 85.8208 0.909192 85.6202 0.615363 85.3255C0.321534 85.0308 0.121442 84.6554 0.0403748 84.2467C-0.0406924 83.8379 0.000899273 83.4143 0.159918 83.0292C0.318937 82.6442 0.588224 82.3152 0.93373 82.0836C1.27924 81.8521 1.68546 81.7285 2.101 81.7285C2.65821 81.7285 3.19262 81.9505 3.58663 82.3457C3.98064 82.7408 4.20197 83.2768 4.20197 83.8356V83.8356Z" fill="#302E38"/>
<path d="M31.6055 83.8356C31.6055 84.2523 31.4823 84.6597 31.2514 85.0062C31.0205 85.3527 30.6924 85.6227 30.3085 85.7822C29.9246 85.9417 29.5022 85.9834 29.0946 85.9021C28.6871 85.8208 28.3127 85.6202 28.0189 85.3255C27.725 85.0308 27.5249 84.6554 27.4439 84.2467C27.3628 83.8379 27.4044 83.4143 27.5634 83.0292C27.7224 82.6442 27.9918 82.3152 28.3373 82.0836C28.6828 81.8521 29.089 81.7285 29.5045 81.7285C30.0617 81.7285 30.5961 81.9505 30.9901 82.3457C31.3841 82.7408 31.6055 83.2768 31.6055 83.8356Z" fill="#302E38"/>
<path d="M59.008 83.8356C59.008 84.2523 58.8848 84.6597 58.6539 85.0062C58.4231 85.3527 58.0949 85.6227 57.711 85.7822C57.3271 85.9417 56.9047 85.9834 56.4971 85.9021C56.0896 85.8208 55.7152 85.6202 55.4214 85.3255C55.1276 85.0308 54.9275 84.6554 54.8464 84.2467C54.7653 83.8379 54.8069 83.4143 54.9659 83.0292C55.125 82.6442 55.3942 82.3152 55.7397 82.0836C56.0852 81.8521 56.4915 81.7285 56.907 81.7285C57.183 81.7284 57.4562 81.7828 57.7112 81.8887C57.9662 81.9945 58.1978 82.1497 58.3929 82.3454C58.588 82.5411 58.7428 82.7734 58.8483 83.0291C58.9539 83.2848 59.0081 83.5588 59.008 83.8356V83.8356Z" fill="#302E38"/>
<path d="M84.3105 85.9426C85.4709 85.9426 86.4115 84.9993 86.4115 83.8356C86.4115 82.6719 85.4709 81.7285 84.3105 81.7285C83.1502 81.7285 82.2095 82.6719 82.2095 83.8356C82.2095 84.9993 83.1502 85.9426 84.3105 85.9426Z" fill="#302E38"/>
</g>
</svg>
