<svg width="16" height="16" viewBox="0 0 16 16" fill="none" xmlns="http://www.w3.org/2000/svg">
<g clip-path="url(#clip0)">
<path d="M0.961679 7.07113C1.02715 7.06051 1.0934 7.05561 1.15969 7.05646H12.4474L12.2012 6.94199C11.9607 6.82811 11.7418 6.67314 11.5544 6.48407L8.38909 3.31872C7.97221 2.92076 7.90216 2.28057 8.2231 1.80187C8.59662 1.29176 9.31294 1.181 9.82309 1.55452C9.8643 1.58472 9.90347 1.61763 9.94028 1.65305L15.6642 7.37701C16.1116 7.82383 16.112 8.54867 15.6651 8.99599C15.6649 8.99628 15.6645 8.9966 15.6642 8.99689L9.94028 14.7208C9.4926 15.1673 8.76777 15.1663 8.3213 14.7186C8.28617 14.6834 8.25336 14.6459 8.2231 14.6064C7.90216 14.1277 7.97221 13.4875 8.38909 13.0895L11.5487 9.91844C11.7167 9.7503 11.9098 9.60931 12.1211 9.5006L12.4646 9.34605H1.22269C0.637881 9.36776 0.1248 8.95925 0.0149355 8.38442C-0.0862713 7.76033 0.337588 7.17237 0.961679 7.07113Z" fill="white"/>
</g>
<defs>
<clipPath id="clip0">
<rect width="16" height="16" fill="white" transform="matrix(-1 0 0 1 16 0)"/>
</clipPath>
</defs>
</svg>
