<svg width="86" height="86" viewBox="0 0 86 86" fill="none" xmlns="http://www.w3.org/2000/svg">
<path fill-rule="evenodd" clip-rule="evenodd" d="M85.9997 15.3344C76.8984 5.88628 64.1238 0 50 0C22.4297 0 0 22.4297 0 49.9995C0 64.1236 5.88682 76.8987 15.3358 86H22C24.2318 86 26.381 86 28.4515 85.9962C26.8162 85.0128 25.2529 83.9213 23.7714 82.7318C26.6567 79.0988 32.5295 72.4864 41.0247 66.6843C46.7979 62.741 52.7707 59.8113 58.9196 57.8883C61.8897 65.5867 64.4982 73.9576 66.3364 82.8054C69.1416 81.8669 71.5872 80.6525 73.7542 79.0815C71.9469 70.8992 69.5491 63.1588 66.8454 55.9846C72.758 54.9871 78.8181 54.8859 85.0078 55.6815C85.2943 53.223 85.4981 50.5656 85.6431 47.6855C77.7113 46.728 70.415 47.1538 63.8146 48.4479C62.3096 44.9284 60.7516 41.5754 59.1792 38.4065C68.2311 34.507 76.1113 29.5265 82.583 23.5809C83.8311 25.1173 84.9725 26.7432 85.9962 28.4474C86 26.3782 86 24.2303 86 22V18C86 17.0981 86 16.2096 85.9997 15.3344ZM55.459 31.2669C63.0819 28.0616 70.5265 23.7201 76.9505 17.8564C69.6536 11.7284 60.2528 8.028 50 8.028C46.9997 8.028 44.0737 8.35073 41.25 8.95229C44.511 13.3308 49.8641 21.0355 55.459 31.2669ZM47.7698 34.1217C41.4694 22.7546 35.6042 14.7651 33.1417 11.5742C21.2678 16.8042 12.2652 27.375 9.18778 40.2305C16.5709 40.1496 31.9354 39.2805 47.7698 34.1217ZM8.18898 48.2791C8.15004 48.2789 8.11129 48.2788 8.07189 48.2788C8.04834 48.8504 8.028 49.4225 8.028 49.9995C8.028 60.3229 11.7814 69.781 17.9865 77.0988C21.3379 72.9601 27.4756 66.2663 36.2368 60.233C41.4614 56.6354 48.0572 53.0121 55.8786 50.494C54.4769 47.2897 53.0314 44.2327 51.5772 41.3346C45.9914 43.2442 40.0383 44.785 33.7604 45.9298C22.7567 47.9363 13.41 48.2793 8.30845 48.2793C8.26784 48.2793 8.22831 48.2792 8.18898 48.2791Z" fill="#E4E6E7"/>
</svg>
