<svg width="32" height="32" viewBox="0 0 32 32" fill="none" xmlns="http://www.w3.org/2000/svg">
<path fill-rule="evenodd" clip-rule="evenodd" d="M25.4057 6.54207C22.9109 4.04435 19.5931 2.66821 16.0584 2.66675C8.77485 2.66675 2.84711 8.59432 2.84418 15.8798C2.8432 18.2087 3.4516 20.4822 4.60801 22.4861L2.73334 29.3334L9.73839 27.4959C11.6686 28.5487 13.8416 29.1036 16.053 29.1042H16.0585C23.3413 29.1042 29.2697 23.1762 29.2724 15.8904C29.2739 12.3595 27.9007 9.03963 25.4057 6.54207ZM16.0584 26.8726H16.0538C14.0831 26.8718 12.1503 26.3422 10.4638 25.3417L10.0629 25.1036L5.90603 26.1941L7.01557 22.1412L6.75434 21.7257C5.65489 19.977 5.07432 17.9558 5.0753 15.8806C5.07758 9.82511 10.0047 4.89852 16.0628 4.89852C18.9964 4.8995 21.754 6.04338 23.8276 8.11938C25.9012 10.1954 27.0424 12.9548 27.0415 15.8896C27.0389 21.9456 22.1121 26.8726 16.0584 26.8726V26.8726ZM22.0828 18.6469C21.7527 18.4815 20.1294 17.683 19.8266 17.5727C19.5242 17.4625 19.3038 17.4076 19.0839 17.738C18.8637 18.0684 18.2311 18.8123 18.0384 19.0325C17.8457 19.2528 17.6533 19.2805 17.323 19.1152C16.9928 18.95 15.929 18.6012 14.6678 17.4763C13.6863 16.6008 13.0237 15.5196 12.831 15.1892C12.6386 14.8585 12.8294 14.697 12.9759 14.5154C13.3333 14.0715 13.6912 13.6062 13.8012 13.386C13.9114 13.1656 13.8562 12.9727 13.7736 12.8075C13.6912 12.6423 13.0309 11.0172 12.7558 10.3559C12.4876 9.71232 12.2156 9.79924 12.0128 9.78914C11.8204 9.77954 11.6002 9.77759 11.38 9.77759C11.1599 9.77759 10.8022 9.86011 10.4995 10.1908C10.1969 10.5214 9.34402 11.3201 9.34402 12.9452C9.34402 14.5704 10.5271 16.1404 10.6922 16.3608C10.8572 16.5811 13.0205 19.9161 16.3325 21.3461C17.1202 21.6866 17.7351 21.8896 18.2148 22.0417C19.0058 22.2931 19.7254 22.2576 20.2944 22.1726C20.9288 22.0777 22.2477 21.3738 22.5231 20.6026C22.7981 19.8313 22.7981 19.1703 22.7155 19.0325C22.6331 18.8948 22.4129 18.8123 22.0828 18.6469V18.6469Z" fill="#5C3DF5"/>
</svg>
