<svg width="32" height="32" viewBox="0 0 32 32" fill="none" xmlns="http://www.w3.org/2000/svg">
<path d="M15.9998 2.66675C8.64789 2.66675 2.66667 8.64797 2.66667 15.9999C2.66667 23.3521 8.64789 29.3334 15.9998 29.3334C16.55 29.3334 16.9957 28.8875 16.9957 28.3375C16.9957 27.7874 16.55 27.3415 15.9998 27.3415C9.74622 27.3415 4.65855 22.2537 4.65855 15.9999C4.65855 9.7463 9.74622 4.65863 15.9998 4.65863C22.2534 4.65863 27.3411 9.7463 27.3411 15.9999V19.0846C27.3411 20.2362 26.4041 21.1731 25.2524 21.1731C24.1008 21.1731 23.1639 20.2362 23.1639 19.0846V15.9999C23.1639 12.0493 19.9501 8.83534 15.9997 8.83534C12.0491 8.83534 8.83513 12.0493 8.83513 15.9999C8.83513 19.9507 12.0491 23.165 15.9997 23.165C18.1922 23.165 20.1567 22.1739 21.4719 20.6173C22.079 22.1097 23.5444 23.165 25.2524 23.165C27.5023 23.165 29.3329 21.3345 29.3329 19.0846V15.9999C29.3329 8.64797 23.3517 2.66675 15.9998 2.66675ZM15.9998 21.1731C13.1476 21.1731 10.8271 18.8524 10.8271 15.9999C10.8271 13.1476 13.1477 10.8272 15.9998 10.8272C18.8519 10.8272 21.1722 13.1476 21.1722 15.9999C21.1722 18.8524 18.8519 21.1731 15.9998 21.1731Z" fill="#5C3DF5"/>
</svg>
