<svg width="32" height="32" viewBox="0 0 32 32" fill="none" xmlns="http://www.w3.org/2000/svg">
<path d="M21.498 2.75051C19.0447 2.63607 12.968 2.64162 10.5125 2.75051C8.3547 2.85162 6.45137 3.37273 4.91692 4.90718C2.35248 7.47162 2.68026 10.9272 2.68026 15.995C2.68026 21.1816 2.39137 24.5572 4.91692 27.0827C7.49137 29.6561 10.9969 29.3194 16.0047 29.3194C21.1425 29.3194 22.9158 29.3227 24.7325 28.6194C27.2025 27.6605 29.0669 25.4527 29.2492 21.4872C29.3647 19.0327 29.358 12.9572 29.2492 10.5016C29.0292 5.82051 26.5169 2.98162 21.498 2.75051V2.75051ZM25.3814 25.3861C23.7003 27.0672 21.368 26.9172 15.9725 26.9172C10.4169 26.9172 8.18915 26.9994 6.56359 25.3694C4.69137 23.5061 5.03026 20.5139 5.03026 15.9772C5.03026 9.83829 4.40026 5.41718 10.5614 5.10162C11.9769 5.05162 12.3936 5.03496 15.9569 5.03496L16.0069 5.06829C21.928 5.06829 26.5736 4.44829 26.8525 10.6083C26.9158 12.0138 26.9303 12.4361 26.9303 15.9939C26.9292 21.485 27.0336 23.7261 25.3814 25.3861V25.3861Z" fill="#5C3DF5"/>
<path d="M22.6633 22.6671V22.6665H22.6667V17.7765C22.6667 15.3843 22.1517 13.5415 19.355 13.5415C18.0106 13.5415 17.1083 14.2793 16.74 14.9787H16.7011V13.7648H14.0495V22.6665H16.8106V18.2587C16.8106 17.0982 17.0306 15.9759 18.4678 15.9759C19.8839 15.9759 19.905 17.3004 19.905 18.3332V22.6671H22.6633Z" fill="#5C3DF5"/>
<path d="M9.55333 13.7651H12.3178V22.6668H9.55333V13.7651Z" fill="#5C3DF5"/>
<path d="M10.9344 9.3335C10.0506 9.3335 9.33334 10.0507 9.33334 10.9346C9.33334 11.8185 10.0506 12.5507 10.9344 12.5507C11.8183 12.5507 12.5356 11.8185 12.5356 10.9346C12.535 10.0507 11.8178 9.3335 10.9344 9.3335V9.3335Z" fill="#5C3DF5"/>
</svg>
