<svg width="86" height="86" viewBox="0 0 86 86" fill="none" xmlns="http://www.w3.org/2000/svg">
<path fill-rule="evenodd" clip-rule="evenodd" d="M85.9566 4.12681C81.8088 1.89769 76.7049 0.594417 70.6176 0.314111C61.4176 -0.115056 38.6301 -0.0942223 29.4218 0.314111C21.3301 0.693278 14.1926 2.64745 8.43845 8.40161C-0.167008 17.0071 -0.0876279 28.2884 0.0242156 44.1832C0.0373581 46.051 0.0509489 47.9825 0.0509489 49.9808C0.0509489 51.8511 0.0409317 53.6586 0.0312449 55.4065C-0.0413143 68.4991 -0.0953424 78.248 4.21787 86H15.5408C15.2253 85.727 14.9166 85.4389 14.6135 85.135C8.57037 79.1206 8.6703 69.9699 8.81534 56.6891L8.81534 56.6888C8.83881 54.5401 8.86345 52.2833 8.86345 49.9141C8.86345 47.905 8.84546 45.9449 8.82797 44.0398C8.64505 24.1166 8.51739 10.2108 29.6051 9.13078L29.8442 9.12233H29.8443C34.9636 8.9414 36.6787 8.88078 49.8385 8.88078L50.026 9.00578C51.9284 9.00578 53.7957 8.98871 55.6207 8.97203H55.6208H55.621H55.6211C68.9644 8.85006 80.0406 8.74881 85.9998 15.4909C85.9988 11.4266 85.9927 7.64685 85.9566 4.12681ZM50.0177 24.3225C35.8385 24.3225 24.3593 35.8142 24.3593 49.9809C24.3593 64.16 35.851 75.6392 50.0177 75.6392C64.1968 75.6392 75.676 64.1475 75.676 49.9809C75.676 35.8017 64.1843 24.3225 50.0177 24.3225ZM50.0177 66.635C40.8135 66.635 33.3635 59.1809 33.3635 49.9809C33.3635 40.7809 40.8177 33.3267 50.0177 33.3267C59.2177 33.3267 66.6718 40.7809 66.6718 49.9809C66.676 59.1809 59.2218 66.635 50.0177 66.635ZM82.6885 23.31C82.6885 26.6214 80.0041 29.3058 76.6926 29.3058C73.3812 29.3058 70.6968 26.6214 70.6968 23.31C70.6968 19.9986 73.3812 17.3142 76.6926 17.3142C80.0041 17.3142 82.6885 19.9986 82.6885 23.31Z" fill="#E4E6E7"/>
</svg>
