<svg width="86" height="86" viewBox="0 0 86 86" fill="none" xmlns="http://www.w3.org/2000/svg">
<path fill-rule="evenodd" clip-rule="evenodd" d="M85.9566 4.12681C81.8088 1.89769 76.7049 0.594417 70.6176 0.314111C61.4176 -0.115056 38.6301 -0.0942223 29.4218 0.314111C21.3301 0.693278 14.1926 2.64745 8.43845 8.40161C-0.167008 17.0071 -0.0876279 28.2884 0.0242156 44.1832C0.0373581 46.051 0.0509489 47.9825 0.0509489 49.9808C0.0509489 51.8511 0.0409317 53.6586 0.0312449 55.4065C-0.0413143 68.4991 -0.0953424 78.248 4.21787 86H15.5408C15.2253 85.727 14.9166 85.4389 14.6135 85.135C8.57037 79.1206 8.6703 69.9699 8.81534 56.6891L8.81534 56.6888C8.83881 54.5401 8.86345 52.2833 8.86345 49.9141C8.86345 47.905 8.84546 45.9449 8.82797 44.0398C8.64505 24.1166 8.51739 10.2108 29.6051 9.13078L29.8442 9.12233H29.8443C34.9636 8.9414 36.6787 8.88078 49.8385 8.88078L50.026 9.00578C51.9284 9.00578 53.7956 8.98871 55.6205 8.97203L55.6207 8.97203H55.6208H55.621H55.6211C68.9644 8.85006 80.0406 8.74881 85.9998 15.4909C85.9988 11.4266 85.9927 7.64685 85.9566 4.12681ZM75 74.9984L74.9875 75.0004H64.6438V58.7484C64.6438 54.8754 64.5646 49.9088 59.2542 49.9088C53.8646 49.9088 53.0396 54.1171 53.0396 58.4692V74.9984H42.6854V41.6171H52.6292V46.1692H52.775C54.1563 43.5463 57.5396 40.7796 62.5813 40.7796C73.0688 40.7796 75 47.69 75 56.6609V74.9984ZM25.825 41.6189H36.1917V75.0001H25.825V41.6189ZM25 31.0042C25 27.6896 27.6896 25 31.0042 25C34.3167 25 37.0062 27.6896 37.0083 31.0042C37.0083 34.3187 34.3187 37.0646 31.0042 37.0646C27.6896 37.0646 25 34.3187 25 31.0042Z" fill="#E4E6E7"/>
</svg>
