<svg width="36" height="36" viewBox="0 0 36 36" fill="none" xmlns="http://www.w3.org/2000/svg">
<g clip-path="url(#clip0)">
<path d="M33.8744 34.2444L29.1397 24.5842C28.7982 23.8686 28.6822 23.0697 28.8066 22.2894C28.9309 21.5091 29.29 20.7827 29.8379 20.2029C31.8129 18.095 32.9375 15.3563 33.0023 12.497C33.0023 3.5485 25.2778 1.62145e-07 19.6054 1.62145e-07H3.25273C3.08825 -8.26499e-05 2.92537 0.0315561 2.77338 0.0931056C2.62139 0.154655 2.48329 0.244909 2.36696 0.358715C2.25062 0.47252 2.15833 0.607645 2.09537 0.75637C2.03241 0.905094 2 1.0645 2 1.22549V9.5051C2.00017 10.1005 2.24196 10.6715 2.67219 11.0925C3.10242 11.5135 3.68586 11.7499 4.29421 11.7499H11.3495C12.3265 11.7296 13.2724 11.4104 14.0547 10.8371C14.5989 10.458 15.2387 10.2319 15.9049 10.1833C16.571 10.1347 17.238 10.2654 17.8337 10.5613C18.4293 10.8572 18.9309 11.307 19.284 11.8619C19.6372 12.4169 19.8284 13.0558 19.8371 13.7095C19.8457 14.3633 19.6714 15.0069 19.3331 15.5706C18.9947 16.1343 18.5052 16.5966 17.9176 16.9075C17.33 17.2184 16.6667 17.366 15.9995 17.3343C15.3323 17.3025 14.6867 17.0927 14.1326 16.7275C13.2633 16.1223 12.2286 15.786 11.1621 15.7618H4.29421C3.68575 15.7618 3.10221 15.9984 2.67196 16.4195C2.2417 16.8406 2 17.4117 2 18.0072V34.7758C2 34.9368 2.03241 35.0962 2.09537 35.2449C2.15833 35.3936 2.25062 35.5287 2.36696 35.6426C2.48329 35.7564 2.62139 35.8466 2.77338 35.9082C2.92537 35.9697 3.08825 36.0013 3.25273 36.0013H13.6225C13.9546 36.0013 14.273 35.8721 14.5079 35.6423C14.7427 35.4125 14.8746 35.1008 14.8746 34.7758V29.6229C14.8745 29.5654 14.8921 29.5092 14.9251 29.4617C14.9582 29.4141 15.0052 29.3775 15.0599 29.3565C15.1146 29.3355 15.1745 29.3312 15.2318 29.3441C15.289 29.357 15.341 29.3865 15.3808 29.4288L19.8102 35.3047C19.9126 35.5126 20.0729 35.688 20.2726 35.8107C20.4724 35.9333 20.7035 35.9983 20.9393 35.9981H32.7466C32.958 35.9978 33.1658 35.9451 33.3507 35.845C33.5357 35.7448 33.6917 35.6005 33.8043 35.4254C33.9169 35.2503 33.9823 35.0502 33.9946 34.8437C34.0069 34.6372 33.9655 34.431 33.8744 34.2444V34.2444Z" fill="#5C3DF5"/>
</g>
<defs>
<clipPath id="clip0">
<rect width="36" height="36" fill="white"/>
</clipPath>
</defs>
</svg>
