<svg width="24" height="24" viewBox="0 0 24 24" fill="none" xmlns="http://www.w3.org/2000/svg">
<path d="M1.16129 4.81936H22.8387C23.4774 4.81936 24 4.29678 24 3.65807V1.33548C24 0.696775 23.4774 0.174194 22.8387 0.174194H1.16129C0.522581 0.174194 0 0.696775 0 1.33548V3.65807C0 4.29678 0.522581 4.81936 1.16129 4.81936Z" fill="#5C3DF5"/>
<path d="M13.0452 6.8903C12.5613 6.27094 11.6129 6.27094 11.1291 6.8903L4.93551 14.6322C4.31616 15.4258 4.87745 16.5871 5.90325 16.5871H7.97422C8.63229 16.5871 9.17422 17.129 9.17422 17.7871V22.6258C9.17422 23.2838 9.71616 23.8256 10.3742 23.8256H13.6258C14.2837 23.8256 14.8256 23.2838 14.8256 22.6258V17.7871C14.8256 17.129 15.3678 16.5871 16.0256 16.5871H18.0966C19.1031 16.5871 19.6644 15.4258 19.045 14.632L13.0452 6.8903Z" fill="#5C3DF5"/>
</svg>
