<svg width="33" height="32" viewBox="0 0 33 32" fill="none" xmlns="http://www.w3.org/2000/svg">
<path d="M19.773 26.6667H19.493C18.9287 26.6107 18.3969 26.3762 17.9749 25.9974C17.5529 25.6185 17.2627 25.115 17.1463 24.56L13.573 8L9.89301 16.5333C9.78892 16.7718 9.61731 16.9747 9.39934 17.1168C9.18137 17.259 8.92657 17.3342 8.66634 17.3333H4.66634C4.31272 17.3333 3.97358 17.1929 3.72353 16.9428C3.47348 16.6928 3.33301 16.3536 3.33301 16C3.33301 15.6464 3.47348 15.3072 3.72353 15.0572C3.97358 14.8071 4.31272 14.6667 4.66634 14.6667H7.78634L11.133 6.94666C11.3583 6.42861 11.7423 5.99549 12.2296 5.70974C12.7169 5.424 13.2824 5.30039 13.8445 5.35675C14.4066 5.41311 14.9363 5.64652 15.3572 6.02332C15.778 6.40013 16.0684 6.90086 16.1863 7.45333L19.7597 24L23.4397 15.4933C23.5397 15.2498 23.7096 15.0414 23.9279 14.8943C24.1462 14.7472 24.4031 14.668 24.6663 14.6667H28.6663C29.02 14.6667 29.3591 14.8071 29.6092 15.0572C29.8592 15.3072 29.9997 15.6464 29.9997 16C29.9997 16.3536 29.8592 16.6928 29.6092 16.9428C29.3591 17.1929 29.02 17.3333 28.6663 17.3333H25.5463L22.1997 25.0533C21.9953 25.5287 21.6571 25.9343 21.2262 26.2208C20.7953 26.5072 20.2904 26.6622 19.773 26.6667Z" fill="white"/>
</svg>
