<svg width="33" height="32" viewBox="0 0 33 32" fill="none" xmlns="http://www.w3.org/2000/svg">
<path d="M25.6669 27.6667L22.5869 15.6667C23.7256 14.2499 24.3424 12.4845 24.3335 10.6667C24.3335 8.54502 23.4907 6.51018 21.9904 5.00989C20.4901 3.5096 18.4553 2.66675 16.3335 2.66675C14.2118 2.66675 12.177 3.5096 10.6767 5.00989C9.1764 6.51018 8.33355 8.54502 8.33355 10.6667C8.32989 12.4985 8.96129 14.2749 10.1202 15.6934L7.00021 27.6667C6.93385 27.9227 6.94506 28.1925 7.03242 28.442C7.11978 28.6916 7.27935 28.9095 7.49085 29.0681C7.70235 29.2267 7.95624 29.3189 8.22024 29.3329C8.48425 29.3469 8.74645 29.2821 8.97355 29.1467L16.0802 24.9734L23.6535 29.1601C23.8582 29.2836 24.0948 29.3439 24.3335 29.3334C24.5406 29.34 24.7463 29.2983 24.9344 29.2116C25.1225 29.1248 25.2878 28.9954 25.4172 28.8337C25.5466 28.6719 25.6366 28.4823 25.6799 28.2797C25.7232 28.0772 25.7188 27.8673 25.6669 27.6667ZM16.3335 5.33341C17.3884 5.33341 18.4195 5.64621 19.2966 6.23224C20.1736 6.81828 20.8572 7.65123 21.2609 8.62577C21.6646 9.60031 21.7702 10.6727 21.5644 11.7072C21.3586 12.7418 20.8507 13.6921 20.1048 14.438C19.3589 15.1839 18.4086 15.6918 17.374 15.8976C16.3395 16.1034 15.2671 15.9978 14.2926 15.5941C13.318 15.1904 12.4851 14.5069 11.899 13.6298C11.313 12.7527 11.0002 11.7216 11.0002 10.6667C11.0002 9.25226 11.5621 7.89571 12.5623 6.89551C13.5625 5.89532 14.9191 5.33341 16.3335 5.33341V5.33341ZM16.7469 22.2801C16.5442 22.1631 16.3143 22.1014 16.0802 22.1014C15.8462 22.1014 15.6162 22.1631 15.4135 22.2801L10.4135 25.2134L12.3335 17.6134C13.5344 18.3036 14.8952 18.6668 16.2802 18.6668C17.6652 18.6668 19.0261 18.3036 20.2269 17.6134L22.2669 25.3334L16.7469 22.2801Z" fill="white"/>
</svg>
