<svg width="33" height="32" viewBox="0 0 33 32" fill="none" xmlns="http://www.w3.org/2000/svg">
<path d="M16.3337 9.33331C14.9344 9.33331 13.5707 9.77356 12.4356 10.5917C11.3005 11.4098 10.4516 12.5644 10.0091 13.8918C9.56663 15.2192 9.55303 16.6522 9.97024 17.9878C10.3874 19.3233 11.2143 20.4938 12.3337 21.3333V26.6666C12.3337 27.3739 12.6146 28.0522 13.1147 28.5523C13.6148 29.0524 14.2931 29.3333 15.0003 29.3333H17.667C18.3742 29.3333 19.0525 29.0524 19.5526 28.5523C20.0527 28.0522 20.3337 27.3739 20.3337 26.6666V21.3333C21.453 20.4938 22.2799 19.3233 22.6971 17.9878C23.1143 16.6522 23.1007 15.2192 22.6582 13.8918C22.2157 12.5644 21.3668 11.4098 20.2317 10.5917C19.0966 9.77356 17.7329 9.33331 16.3337 9.33331ZM18.3337 19.4533C18.1302 19.5708 17.9614 19.7399 17.8443 19.9436C17.7272 20.1473 17.6661 20.3784 17.667 20.6133V26.6666H15.0003V20.6133C15.0013 20.3784 14.9401 20.1473 14.823 19.9436C14.7059 19.7399 14.5371 19.5708 14.3337 19.4533C13.7272 19.1032 13.2232 18.5999 12.8722 17.9939C12.5213 17.3879 12.3355 16.7003 12.3337 16C12.3337 14.9391 12.7551 13.9217 13.5052 13.1716C14.2554 12.4214 15.2728 12 16.3337 12C17.3945 12 18.4119 12.4214 19.1621 13.1716C19.9122 13.9217 20.3337 14.9391 20.3337 16C20.3318 16.7003 20.1461 17.3879 19.7951 17.9939C19.4441 18.5999 18.9402 19.1032 18.3337 19.4533Z" fill="white"/>
<path d="M16.3333 8.00002C16.687 8.00002 17.0261 7.85954 17.2761 7.6095C17.5262 7.35945 17.6667 7.02031 17.6667 6.66669V4.00002C17.6667 3.6464 17.5262 3.30726 17.2761 3.05721C17.0261 2.80716 16.687 2.66669 16.3333 2.66669C15.9797 2.66669 15.6406 2.80716 15.3905 3.05721C15.1405 3.30726 15 3.6464 15 4.00002V6.66669C15 7.02031 15.1405 7.35945 15.3905 7.6095C15.6406 7.85954 15.9797 8.00002 16.3333 8.00002Z" fill="white"/>
<path d="M28.3335 14.6667H25.6668C25.3132 14.6667 24.9741 14.8072 24.724 15.0572C24.474 15.3073 24.3335 15.6464 24.3335 16C24.3335 16.3536 24.474 16.6928 24.724 16.9428C24.9741 17.1929 25.3132 17.3334 25.6668 17.3334H28.3335C28.6871 17.3334 29.0263 17.1929 29.2763 16.9428C29.5264 16.6928 29.6668 16.3536 29.6668 16C29.6668 15.6464 29.5264 15.3073 29.2763 15.0572C29.0263 14.8072 28.6871 14.6667 28.3335 14.6667Z" fill="white"/>
<path d="M7 14.6667H4.33333C3.97971 14.6667 3.64057 14.8072 3.39052 15.0572C3.14048 15.3073 3 15.6464 3 16C3 16.3536 3.14048 16.6928 3.39052 16.9428C3.64057 17.1929 3.97971 17.3334 4.33333 17.3334H7C7.35362 17.3334 7.69276 17.1929 7.94281 16.9428C8.19286 16.6928 8.33333 16.3536 8.33333 16C8.33333 15.6464 8.19286 15.3073 7.94281 15.0572C7.69276 14.8072 7.35362 14.6667 7 14.6667Z" fill="white"/>
<path d="M10.547 8.55999L8.62697 6.66666C8.36706 6.42089 8.02016 6.28844 7.66259 6.29844C7.30503 6.30844 6.96607 6.46008 6.72031 6.71999C6.47454 6.9799 6.34209 7.3268 6.35209 7.68437C6.36209 8.04194 6.51373 8.38089 6.77364 8.62666L8.69364 10.48C8.82249 10.6044 8.97508 10.7016 9.14231 10.7657C9.30954 10.8299 9.48798 10.8597 9.66697 10.8533C9.84658 10.8526 10.0242 10.8157 10.1892 10.7446C10.3541 10.6736 10.503 10.57 10.627 10.44C10.865 10.1797 10.9902 9.83581 10.9752 9.48347C10.9602 9.13113 10.8062 8.79907 10.547 8.55999Z" fill="white"/>
<path d="M25.9197 6.73331C25.6698 6.48497 25.3319 6.34558 24.9797 6.34558C24.6274 6.34558 24.2895 6.48497 24.0397 6.73331L22.1197 8.55997C21.8713 8.80979 21.7319 9.14772 21.7319 9.49997C21.7319 9.85222 21.8713 10.1902 22.1197 10.44C22.2436 10.57 22.3925 10.6736 22.5575 10.7446C22.7224 10.8157 22.9 10.8526 23.0797 10.8533C23.4229 10.8519 23.7525 10.7182 23.9997 10.48L25.9197 8.62664C26.0446 8.50269 26.1438 8.35522 26.2115 8.19274C26.2792 8.03026 26.3141 7.85599 26.3141 7.67997C26.3141 7.50396 26.2792 7.32968 26.2115 7.1672C26.1438 7.00472 26.0446 6.85726 25.9197 6.73331Z" fill="white"/>
</svg>
