<svg width="33" height="32" viewBox="0 0 33 32" fill="none" xmlns="http://www.w3.org/2000/svg">
<path d="M29.8268 15.3335C28.9734 13.8535 24.2801 6.42682 16.3068 6.66682C8.93342 6.85349 4.66676 13.3335 3.50676 15.3335C3.38973 15.5362 3.32812 15.7661 3.32812 16.0002C3.32812 16.2342 3.38973 16.4641 3.50676 16.6668C4.34676 18.1202 8.84009 25.3335 16.6934 25.3335H17.0268C24.4001 25.1468 28.6801 18.6668 29.8268 16.6668C29.9438 16.4641 30.0054 16.2342 30.0054 16.0002C30.0054 15.7661 29.9438 15.5362 29.8268 15.3335V15.3335ZM16.9601 22.6668C11.2134 22.8002 7.46676 17.8802 6.29342 16.0002C7.62676 13.8535 11.1068 9.46682 16.4401 9.33349C22.1601 9.18682 25.9201 14.1202 27.1068 16.0002C25.7334 18.1468 22.2934 22.5335 16.9601 22.6668V22.6668Z" fill="white"/>
<path d="M16.6667 11.3333C15.7437 11.3333 14.8414 11.6069 14.074 12.1197C13.3066 12.6325 12.7084 13.3613 12.3552 14.2141C12.002 15.0668 11.9096 16.0051 12.0897 16.9103C12.2697 17.8156 12.7142 18.6471 13.3668 19.2998C14.0195 19.9524 14.851 20.3969 15.7562 20.5769C16.6615 20.757 17.5998 20.6646 18.4525 20.3114C19.3052 19.9581 20.0341 19.36 20.5469 18.5926C21.0596 17.8252 21.3333 16.9229 21.3333 15.9999C21.3333 14.7622 20.8417 13.5753 19.9665 12.7001C19.0913 11.8249 17.9043 11.3333 16.6667 11.3333V11.3333ZM16.6667 17.9999C16.2711 17.9999 15.8844 17.8826 15.5555 17.6629C15.2266 17.4431 14.9703 17.1307 14.8189 16.7653C14.6675 16.3998 14.6279 15.9977 14.7051 15.6097C14.7823 15.2218 14.9728 14.8654 15.2525 14.5857C15.5322 14.306 15.8885 14.1155 16.2765 14.0383C16.6645 13.9612 17.0666 14.0008 17.432 14.1522C17.7975 14.3035 18.1098 14.5599 18.3296 14.8888C18.5494 15.2177 18.6667 15.6044 18.6667 15.9999C18.6667 16.5304 18.456 17.0391 18.0809 17.4141C17.7058 17.7892 17.1971 17.9999 16.6667 17.9999Z" fill="white"/>
</svg>
