<svg width="32" height="32" viewBox="0 0 32 32" fill="none" xmlns="http://www.w3.org/2000/svg">
<path d="M14.8133 30.6667C14.6587 30.6665 14.5053 30.6394 14.36 30.5867C14.0796 30.484 13.8419 30.2903 13.6847 30.0364C13.5276 29.7826 13.4602 29.4833 13.4933 29.1867L14.52 19.7333H6.66664C6.42442 19.7337 6.18667 19.6681 5.97893 19.5435C5.77119 19.4189 5.60131 19.2401 5.48754 19.0263C5.37376 18.8124 5.32039 18.5716 5.33315 18.3297C5.34591 18.0878 5.42433 17.854 5.55998 17.6533L16.08 1.91999C16.2464 1.67377 16.4902 1.49019 16.7729 1.3984C17.0555 1.30661 17.3607 1.31186 17.64 1.41332C17.9085 1.513 18.1378 1.6965 18.2938 1.93664C18.4499 2.17678 18.5245 2.4608 18.5066 2.74665L17.48 12.2667H25.3333C25.5755 12.2663 25.8133 12.3319 26.021 12.4565C26.2288 12.5811 26.3986 12.7599 26.5124 12.9737C26.6262 13.1876 26.6796 13.4283 26.6668 13.6702C26.654 13.9121 26.5756 14.146 26.44 14.3467L15.92 30.08C15.7977 30.2609 15.6328 30.4091 15.4398 30.5114C15.2469 30.6137 15.0317 30.667 14.8133 30.6667ZM9.15998 17.0667H16C16.186 17.0671 16.3699 17.1065 16.5399 17.1822C16.7098 17.258 16.862 17.3685 16.9866 17.5067C17.1125 17.6467 17.2072 17.8117 17.2647 17.991C17.3221 18.1702 17.341 18.3596 17.32 18.5467L16.72 24.08L22.84 14.9333H16C15.8118 14.9345 15.6256 14.8958 15.4534 14.8198C15.2813 14.7438 15.1272 14.6322 15.0013 14.4925C14.8753 14.3527 14.7804 14.1878 14.7227 14.0087C14.6651 13.8296 14.6459 13.6403 14.6666 13.4533L15.2666 7.91999L9.15998 17.0667Z" fill="white"/>
</svg>
