<svg width="32" height="32" viewBox="0 0 32 32" fill="none" xmlns="http://www.w3.org/2000/svg">
<path d="M27.9999 15.1332C27.9846 14.8853 27.9004 14.6466 27.7567 14.444C27.613 14.2414 27.4155 14.083 27.1866 13.9866L24.3199 12.7599L27.3333 11.0266C27.5469 10.9037 27.7223 10.724 27.84 10.5075C27.9577 10.2909 28.013 10.046 27.9999 9.79989C27.9846 9.55197 27.9004 9.31326 27.7567 9.11065C27.613 8.90805 27.4155 8.74962 27.1866 8.65322L16.5199 4.10656C16.3554 4.03688 16.1786 4.00098 15.9999 4.00098C15.8213 4.00098 15.6444 4.03688 15.4799 4.10656L4.81327 8.65322C4.58434 8.74962 4.3869 8.90805 4.2432 9.11065C4.09949 9.31326 4.01524 9.55197 3.99993 9.79989C3.98683 10.046 4.0422 10.2909 4.15988 10.5075C4.27757 10.724 4.45296 10.9037 4.6666 11.0266L7.67993 12.7599L4.81327 13.9866C4.58434 14.083 4.3869 14.2414 4.2432 14.444C4.09949 14.6466 4.01524 14.8853 3.99993 15.1332C3.98683 15.3793 4.0422 15.6242 4.15988 15.8408C4.27757 16.0573 4.45296 16.237 4.6666 16.3599L7.67993 18.0932L4.81327 19.3199C4.58434 19.4163 4.3869 19.5747 4.2432 19.7773C4.09949 19.9799 4.01524 20.2186 3.99993 20.4666C3.98683 20.7127 4.0422 20.9576 4.15988 21.1741C4.27757 21.3907 4.45296 21.5703 4.6666 21.6932L15.3333 27.8266C15.536 27.9436 15.7659 28.0052 15.9999 28.0052C16.234 28.0052 16.4639 27.9436 16.6666 27.8266L27.3333 21.6932C27.5469 21.5703 27.7223 21.3907 27.84 21.1741C27.9577 20.9576 28.013 20.7127 27.9999 20.4666C27.9846 20.2186 27.9004 19.9799 27.7567 19.7773C27.613 19.5747 27.4155 19.4163 27.1866 19.3199L24.3199 18.0932L27.3333 16.3599C27.5469 16.237 27.7223 16.0573 27.84 15.8408C27.9577 15.6242 28.013 15.3793 27.9999 15.1332V15.1332ZM15.9999 6.78656L23.6799 10.0532L15.9999 14.4666L8.31993 10.0532L15.9999 6.78656ZM15.3333 17.1599C15.536 17.2769 15.7659 17.3385 15.9999 17.3385C16.234 17.3385 16.4639 17.2769 16.6666 17.1599L21.4266 14.4932L23.6799 15.4532L15.9999 19.7999L8.31993 15.3866L10.5733 14.4266L15.3333 17.1599ZM23.6799 20.7199L15.9999 25.1332L8.31993 20.7199L10.5733 19.7599L15.3333 22.4932C15.536 22.6102 15.7659 22.6719 15.9999 22.6719C16.234 22.6719 16.4639 22.6102 16.6666 22.4932L21.4266 19.7599L23.6799 20.7199Z" fill="white"/>
</svg>
